<svg xmlns="http://www.w3.org/2000/svg" viewBox="0 0 32 32" fill="none">
  <rect width="32" height="32" rx="8" fill="#2550ea"/>
  <path d="M16 8c-4 0-7.5 3-7.8 7-.2 2 1 4 2.8 5.2-1.5 1-2.5 2.8-2.2 4.8.5 3.5 4 6 7.2 6.5 1 1.5 2.8 2.5 4.8 2.5h3c2 0 3.8-1 4.8-2.5 3.2-.5 6.7-3 7.2-6.5.3-2-0.7-3.8-2.2-4.8 1.8-1.2 3-3.2 2.8-5.2C23.5 11 20 8 16 8z" fill="white" fill-opacity="0.95"/>
  <text x="16" y="19" text-anchor="middle" fill="#2550ea" font-size="9" font-weight="700" font-family="system-ui,sans-serif">IQ</text>
</svg>
