<?xml version="1.0" encoding="UTF-8"?>
<svg xmlns="http://www.w3.org/2000/svg" viewBox="0 0 1200 630" role="img">
  <defs>
    <linearGradient id="bg" x1="0%" y1="0%" x2="100%" y2="100%">
      <stop offset="0%" stop-color="#eef4ff"/>
      <stop offset="100%" stop-color="#f5f3ff"/>
    </linearGradient>
    <linearGradient id="brain" x1="0%" y1="100%" x2="0%" y2="0%">
      <stop offset="0%" stop-color="#1d3fd6"/>
      <stop offset="100%" stop-color="#5a92ff"/>
    </linearGradient>
    <linearGradient id="dna" x1="0%" y1="0%" x2="0%" y2="100%">
      <stop offset="0%" stop-color="#7c3aed"/>
      <stop offset="100%" stop-color="#a78bfa"/>
    </linearGradient>
  </defs>
  <rect width="1200" height="630" fill="url(#bg)"/>
  <path d="M180 180 Q210 140 240 180 T300 180 Q330 220 360 180 T420 180" fill="none" stroke="url(#dna)" stroke-width="8" stroke-linecap="round"/>
  <path d="M180 200 Q210 240 240 200 T300 200 Q330 160 360 200 T420 200" fill="none" stroke="url(#dna)" stroke-width="8" stroke-linecap="round"/>
  <line x1="210" y1="160" x2="210" y2="220" stroke="#7c3aed" stroke-width="3" opacity="0.5"/>
  <line x1="270" y1="160" x2="270" y2="220" stroke="#7c3aed" stroke-width="3" opacity="0.5"/>
  <line x1="330" y1="160" x2="330" y2="220" stroke="#7c3aed" stroke-width="3" opacity="0.5"/>
  <line x1="390" y1="160" x2="390" y2="220" stroke="#7c3aed" stroke-width="3" opacity="0.5"/>
  <ellipse cx="560" cy="310" rx="130" ry="100" fill="url(#brain)" opacity="0.95"/>
  <path d="M505 320 Q560 265 615 320" fill="none" stroke="#bcd4ff" stroke-width="5"/>
  <rect x="820" y="380" width="260" height="64" rx="16" fill="#2550ea" opacity="0.1" stroke="#2550ea" stroke-width="2"/>
  <text x="950" y="410" text-anchor="middle" font-family="Arial,sans-serif" font-size="18" font-weight="700" fill="#2550ea">Genetics 50-80%</text>
  <text x="950" y="432" text-anchor="middle" font-family="Arial,sans-serif" font-size="14" fill="#1e35ad">Inherited influence</text>
  <rect x="820" y="470" width="260" height="64" rx="16" fill="#10b981" opacity="0.1" stroke="#10b981" stroke-width="2"/>
  <text x="950" y="500" text-anchor="middle" font-family="Arial,sans-serif" font-size="18" font-weight="700" fill="#059669">Environment 20-50%</text>
  <text x="950" y="522" text-anchor="middle" font-family="Arial,sans-serif" font-size="14" fill="#047857">Education, nutrition, sleep</text>
  <text x="600" y="580" text-anchor="middle" font-family="Arial,sans-serif" font-size="28" font-weight="700" fill="#1e35ad">Is Intelligence Genetic?</text>
  <text x="600" y="610" text-anchor="middle" font-family="Arial,sans-serif" font-size="16" fill="#64748b">DNA, brain development, and environment shape IQ</text>
</svg>